<svg width="20" height="20" viewBox="0 0 20 20" fill="none" xmlns="http://www.w3.org/2000/svg">
<path d="M19.4 8.2H10V11.9H15.5C15.4 12.8 14.8 14.2 13.5 15.1C12.7 15.7 11.5 16.1 10 16.1C7.4 16.1 5.1 14.4 4.3 11.9C4.1 11.3 4 10.6 4 9.9C4 9.2 4.1 8.5 4.3 7.9C4.4 7.7 4.4 7.5 4.5 7.4C5.4 5.3 7.5 3.8 10 3.8C11.9 3.8 13.1 4.6 13.9 5.3L16.7 2.5C15 1 12.7 0 10 0C6.1 0 2.7 2.2 1.1 5.5C0.4 6.9 0 8.4 0 10C0 11.6 0.4 13.1 1.1 14.5C2.7 17.8 6.1 20 10 20C12.7 20 15 19.1 16.6 17.6C18.5 15.9 19.6 13.3 19.6 10.2C19.6 9.4 19.5 8.8 19.4 8.2Z" fill="white"/>
</svg>
